Coordinates
version=1
nRows=8
nColumns=42
inDegrees=yes

Units are S.I. units (second, meters, Newtons, ...)
If the header above contains a line with 'inDegrees', this indicates whether rotational values are in degrees (yes) or radians (no).

endheader
time	pelvis_tilt	pelvis_list	pelvis_rotation	pelvis_tx	pelvis_ty	pelvis_tz	hip_flexion_r	hip_adduction_r	hip_rotation_r	knee_angle_r	knee_adduction_r	knee_angle_r_beta	ankle_angle_r	subtalar_angle_r	mtp_angle_r	hip_flexion_l	hip_adduction_l	hip_rotation_l	knee_angle_l	knee_adduction_l	knee_angle_l_beta	ankle_angle_l	subtalar_angle_l	mtp_angle_l	lumbar_extension	lumbar_bending	lumbar_rotation	arm_flex_r	arm_add_r	arm_rot_r	elbow_flex_r	pro_sup_r	wrist_flex_r	wrist_dev_r	arm_flex_l	arm_add_l	arm_rot_l	elbow_flex_l	pro_sup_l	wrist_flex_l	wrist_dev_l
      1.28000000	      8.83561684	      1.31885272	      1.65422090	      0.89688739	      0.84095852	     -0.26798658	    -12.80285098	     -1.41101253	    -10.91107953	      7.69142486	      4.96824961	      0.13424069	     15.91871191	      7.36364696	     -7.50688324	     15.25915303	     -4.01842958	     -9.95535624	     57.50841936	     -0.51140734	      1.00371127	     11.42303094	    -12.53564574	     -7.50688324	    -22.54751945	     -0.93712924	      3.71011646	      4.76834986	    -15.61329991	     -6.25744662	     36.08136681	     90.00000001	      0.00000000	      0.00000000	     -1.80478825	     -9.72756263	    -22.61918691	     37.54074524	     90.00000001	      0.00000000	      0.00000000
      1.29000000	      8.85716556	      1.76578202	      1.06204565	      0.91148349	      0.84086324	     -0.26694846	    -14.57960451	     -1.93131123	    -10.94534021	      6.42629619	      5.20921540	      0.11216003	     16.10247167	      7.84369543	     -7.50663296	     16.10428574	     -3.42096958	    -10.76551006	     54.06984245	      0.04946865	      0.94369678	     11.36811795	    -12.92367313	     -7.50663296	    -22.50492540	     -1.76418813	      4.70390301	      4.82899035	    -15.94389083	     -5.70506874	     36.59163346	     90.00000001	      0.00000000	      0.00000000	     -2.32032300	     -9.76440236	    -24.32251974	     36.76592560	     90.00000001	      0.00000000	      0.00000000
      1.30000000	      8.78659845	      2.07693874	      0.56402802	      0.92588954	      0.84016340	     -0.26602316	    -16.09647813	     -2.30549245	    -11.16611838	      5.45448784	      5.44023645	      0.09519877	     16.21032868	      8.02399479	     -7.50628244	     16.97416249	     -2.93752128	    -11.54453453	     50.39963458	      0.49183768	      0.87963957	     11.14544959	    -13.48040079	     -7.50628244	    -22.39028451	     -2.41323533	      5.54591750	      5.01497096	    -16.32325290	     -4.95893235	     37.08181473	     90.00000001	      0.00000000	      0.00000000	     -2.89063562	     -9.76901127	    -26.41108705	     36.14009178	     90.00000001	      0.00000000	      0.00000000
      1.31000000	      8.66009724	      2.20805238	      0.08641364	      0.94038304	      0.83891468	     -0.26511495	    -17.47190117	     -2.46257364	    -11.56134632	      4.62584630	      5.59467137	      0.08073625	     16.44990548	      8.50962492	     -7.50593681	     17.76981979	     -2.70897379	    -12.38868439	     46.52459350	      0.92092538	      0.81200734	     11.15424133	    -13.70143165	     -7.50593681	    -22.18093368	     -2.85332703	      6.45400790	      5.16845757	    -16.73959524	     -4.32572936	     37.52607335	     90.00000001	      0.00000000	      0.00000000	     -3.45211831	     -9.82153151	    -28.26938362	     35.44644035	     90.00000001	      0.00000000	      0.00000000
      1.32000000	      8.52870201	      2.23093365	     -0.35734390	      0.95494104	      0.83724480	     -0.26430887	    -18.73305315	     -2.52184761	    -12.08895160	      4.03942152	      5.74814003	      0.07050121	     16.77038480	      9.10605633	     -7.50556027	     18.40872598	     -2.59815420	    -13.26151914	     42.42266850	      1.29026718	      0.74041524	     11.23620941	    -13.58010567	     -7.50556027	    -21.96192726	     -3.15276008	      7.32464332	      5.37280171	    -17.19133159	     -3.67690300	     37.91431085	     90.00000001	      0.00000000	      0.00000000	     -4.02229464	     -9.86900928	    -30.24020581	     34.77278112	     90.00000001	      0.00000000	      0.00000000
      1.33000000	      8.44563284	      2.19660652	     -0.74024848	      0.96955486	      0.83531780	     -0.26371115	    -19.97940561	     -2.48911241	    -12.75120061	      3.60066184	      5.80872812	      0.06284340	     17.14938069	      9.73828140	     -7.50525907	     18.82364105	     -2.50235340	    -14.14884557	     38.11198559	      1.57978971	      0.66517963	     11.45967630	    -12.85518794	     -7.50525907	    -21.80329337	     -3.35450456	      8.10301805	      5.62492005	    -17.65787151	     -3.09643549	     38.33038944	     90.00000001	      0.00000000	      0.00000000	     -4.62202796	     -9.92777416	    -32.13085218	     34.16332281	     90.00000001	      0.00000000	      0.00000000
      1.34000000	      8.18876724	      1.84940778	     -1.07280935	      0.98404394	      0.83284871	     -0.26292571	    -20.86719678	     -2.03500673	    -13.11876293	      3.43885439	      5.67207429	      0.06001933	     17.55186415	     10.27715310	     -7.50509974	     19.36128105	     -2.89710998	    -14.76998458	     33.89871143	      2.16805595	      0.59164413	     11.76967755	    -11.50696825	     -7.50509974	    -21.47041939	     -3.21669098	      8.87449104	      5.92950033	    -18.06667174	     -2.72109538	     38.63910596	     90.00000001	      0.00000000	      0.00000000	     -5.35319063	    -10.10618900	    -33.34890450	     33.54730851	     90.00000001	      0.00000000	      0.00000000
      1.35000000	      8.25547831	      1.89783961	     -1.39562763	      0.99907136	      0.83058489	     -0.26294725	    -22.20502377	     -2.28709886	    -13.92777561	      3.31841577	      5.95109371	      0.05791728	     17.93991949	     10.87975707	     -7.50477444	     19.26523026	     -2.57172270	    -15.71652383	     29.38672372	      2.30008441	      0.51289509	     12.01738783	     -9.73710156	     -7.50477444	    -21.44698262	     -3.44078967	      9.41329198	      6.21192092	    -18.63469947	     -1.83954437	     38.98816862	     90.00000001	      0.00000000	      0.00000000	     -5.86650048	     -9.99653983	    -36.34171801	     33.05750220	     90.00000001	      0.00000000	      0.00000000
